<?xml version="1.0" encoding="iso-8859-1"?>
<!-- Generator: Adobe Illustrator 19.0.0, SVG Export Plug-In . SVG Version: 6.00 Build 0)  -->
<svg version="1.1" id="Capa_1" xmlns="http://www.w3.org/2000/svg" xmlns:xlink="http://www.w3.org/1999/xlink" x="0px" y="0px"
	 viewBox="0 0 512 512" style="enable-background:new 0 0 512 512;" xml:space="preserve">
<path style="fill:#EFEFF0;" d="M458.663,201.324l5.201-11.037l0.333-0.763c9.243-22.818,11.205-52.289,5.524-82.985
	c-6.081-32.847-20.554-66.303-41.855-96.752L421.019,0l-11.076,4.469c-2.392,0.965-55.839,22.928-92.961,70.56
	c-19.759-5.64-40.223-8.494-60.982-8.494c-20.76,0-41.223,2.854-60.984,8.494c-37.122-47.632-90.569-69.595-92.96-70.56L90.98,0
	l-6.846,9.787c-21.3,30.449-35.773,63.906-41.854,96.752c-5.682,30.696-3.721,60.167,5.523,82.985l5.534,11.8L10.095,390.511
	L256,511.999l245.904-121.488L458.663,201.324z"/>
<path style="fill:#DFDEE0;" d="M458.663,201.324l5.201-11.037l0.333-0.763c9.243-22.818,11.205-52.289,5.524-82.985
	c-6.081-32.847-20.554-66.303-41.855-96.752L421.019,0l-11.076,4.469c-2.392,0.965-55.839,22.928-92.961,70.56
	c-19.759-5.64-40.223-8.494-60.982-8.494l0,0V512l0,0l245.904-121.488L458.663,201.324z"/>
<rect x="161.897" y="269.005" style="fill:#265D77;" width="30.033" height="30.033"/>
<rect x="320.071" y="269.005" style="fill:#132F3B;" width="30.033" height="30.033"/>
<g>
	<path style="fill:#CECED1;" d="M305.053,373.785c0,9.384-7.634,17.019-17.019,17.019s-17.019-7.634-17.019-17.019v-21.357h-30.033
		v21.357c0,9.384-7.635,17.019-17.02,17.019s-17.019-7.634-17.019-17.019h-30.033c0,25.944,21.107,47.052,47.052,47.052
		c12.368,0,23.629-4.803,32.035-12.634c8.406,7.831,19.668,12.634,32.035,12.634c25.944,0,47.052-21.107,47.052-47.052H305.053z"/>
	<path style="fill:#CECED1;" d="M325.135,164.036c-19.924,0-38.708,6.28-54.119,17.442v-31.939h-30.033v31.939
		c-15.411-11.161-34.196-17.442-54.12-17.442c-50.887,0-92.286,41.399-92.286,92.286h30.033c0-34.327,27.927-62.253,62.253-62.253
		c22.607,0,43.042,11.983,54.12,31.484v52.125h30.033v-52.125c11.077-19.502,31.513-31.486,54.119-31.486
		c34.327,0,62.254,27.927,62.254,62.253h30.033C417.421,205.435,376.022,164.036,325.135,164.036z"/>
	<path style="fill:#CECED1;" d="M126.807,158.913c-16.74-20.947-21.283-47.718-13.135-77.418l28.963,7.946
		c-5.579,20.338-3.01,37.404,7.634,50.723L126.807,158.913z"/>
</g>
<g>
	<path style="fill:#AEADB3;" d="M385.192,158.913l-23.462-18.75c10.645-13.32,13.212-30.385,7.633-50.724l28.964-7.946
		C406.475,111.195,401.933,137.965,385.192,158.913z"/>
	<path style="fill:#AEADB3;" d="M325.135,164.036c-19.924,0-38.708,6.28-54.119,17.442v-31.939H256v128.14h15.016v-52.125
		c11.077-19.502,31.513-31.486,54.119-31.486c34.327,0,62.254,27.927,62.254,62.253h30.033
		C417.421,205.435,376.022,164.036,325.135,164.036z"/>
	<path style="fill:#AEADB3;" d="M305.053,373.785c0,9.384-7.634,17.019-17.019,17.019s-17.019-7.634-17.019-17.019v-21.357H256
		v55.775l0,0c8.406,7.831,19.668,12.634,32.035,12.634c25.944,0,47.052-21.107,47.052-47.052H305.053z"/>
</g>
<path style="fill:#265D77;" d="M288.035,347.851c0,12.638-32.035,32.035-32.035,32.035s-32.035-19.397-32.035-32.035
	s14.343-22.882,32.035-22.882S288.035,335.213,288.035,347.851z"/>
<path style="fill:#132F3B;" d="M256,324.968c17.692,0,32.035,10.244,32.035,22.882S256,379.885,256,379.885"/>
<g>
</g>
<g>
</g>
<g>
</g>
<g>
</g>
<g>
</g>
<g>
</g>
<g>
</g>
<g>
</g>
<g>
</g>
<g>
</g>
<g>
</g>
<g>
</g>
<g>
</g>
<g>
</g>
<g>
</g>
</svg>
